<?xml version="1.0" encoding="UTF-8"?>
<svg version="1.1" xmlns="http://www.w3.org/2000/svg" width="2363" height="2132">
<path d="M0 0 C0.67409283 0.00041416 1.34818565 0.00082832 2.04270554 0.00125504 C23.20937835 0.01751536 44.28550102 0.16710578 65.375 2.1875 C66.19109741 2.26526672 67.00719482 2.34303345 67.84802246 2.42315674 C147.51492867 10.10888372 225.77790231 28.61281645 308.375 69.1875 C309.40882812 69.703125 310.44265625 70.21875 311.5078125 70.75 C347.77864586 88.93276764 381.4083607 112.02829062 412.375 138.1875 C412.98682129 138.70022461 413.59864258 139.21294922 414.22900391 139.74121094 C426.11573117 149.70570496 437.5178523 160.1818498 448.39453125 171.2421875 C450.36139874 173.17414018 452.39931336 174.96541669 454.5 176.75 C457.75720681 179.54826574 460.49210449 182.54771083 463.26171875 185.8203125 C466.01263218 188.90174233 468.93677489 191.78575398 471.875 194.6875 C475.9579612 198.72907983 479.92366999 202.79343354 483.64453125 207.17578125 C485.79033274 209.67033603 488.02085677 212.07968982 490.25 214.5 C494.3406056 218.98547552 498.22317843 223.59330544 502.03515625 228.31640625 C504.11219814 230.86503027 506.2244847 233.37455564 508.36035156 235.87353516 C514.57838306 243.15121011 520.53233704 250.60609756 526.375 258.1875 C527.28258057 259.3640918 527.28258057 259.3640918 528.20849609 260.56445312 C541.44193696 277.75176779 554.23082932 295.21299921 566.375 313.1875 C566.90706055 313.97463379 567.43912109 314.76176758 567.98730469 315.57275391 C581.79085578 336.03912698 595.04207507 356.79906946 607.375 378.1875 C608.12716797 379.49001709 608.12716797 379.49001709 608.89453125 380.81884766 C610.31502769 383.29019288 611.72300028 385.76812303 613.125 388.25 C613.54362305 388.98186523 613.96224609 389.71373047 614.39355469 390.46777344 C614.96444824 391.49112793 614.96444824 391.49112793 615.546875 392.53515625 C615.8778418 393.12304932 616.20880859 393.71094238 616.54980469 394.31665039 C617.54324313 396.56893405 617.96405143 398.76732503 618.375 401.1875 C548.80406663 442.45618208 472.84384876 459.92595911 393.484375 439.79467773 C347.02544492 427.48207934 302.73030835 406.40613342 261 382.8125 C260.03698975 382.27125488 259.07397949 381.73000977 258.08178711 381.17236328 C253.35545483 378.50214134 248.68883219 375.77742146 244.09375 372.88671875 C223.66795643 360.33691861 200.97227852 353.05876714 178.42791748 345.24597168 C175.52852915 344.24072982 172.63145689 343.22908177 169.73486328 342.21582031 C113.28893121 322.52666815 53.70655358 304.6659461 -6.5625 304.8125 C-7.46096649 304.81337616 -8.35943298 304.81425232 -9.28512573 304.81515503 C-28.2642273 304.87530175 -46.85285347 306.4678961 -65.625 309.1875 C-66.43412842 309.3039386 -67.24325684 309.4203772 -68.0769043 309.54034424 C-153.59049656 321.96244639 -236.49849917 351.86205748 -300.703125 411.484375 C-303.42193008 413.99963317 -306.17206969 416.47375299 -308.9375 418.9375 C-314.81997975 424.227973 -320.32675438 429.71038093 -325.48828125 435.70703125 C-327.18247714 437.67378516 -328.88931064 439.62674073 -330.60546875 441.57421875 C-337.6101066 449.54656141 -344.3094537 457.65666149 -350.625 466.1875 C-351.11967773 466.85088379 -351.61435547 467.51426758 -352.12402344 468.19775391 C-360.53819861 479.51417226 -368.31873862 491.12738296 -375.625 503.1875 C-376.16737305 504.08146484 -376.70974609 504.97542969 -377.26855469 505.89648438 C-410.61899941 561.20472335 -431.69682133 619.56214745 -437.625 684.1875 C-437.76856934 685.74331787 -437.76856934 685.74331787 -437.91503906 687.33056641 C-438.77866821 697.85972251 -438.86829104 708.37941565 -438.875 718.9375 C-438.87567474 719.89948303 -438.87634949 720.86146606 -438.87704468 721.8526001 C-438.76706965 821.42419631 -404.45472938 920.00444476 -317.625 1018.1875 C-314.24041802 1021.51553765 -310.73793726 1024.70421248 -307.16748047 1027.83203125 C-305.51794174 1029.28157842 -303.88615464 1030.7497727 -302.25390625 1032.21875 C-282.47950357 1049.85516026 -260.54837713 1064.94989231 -237.625 1078.1875 C-236.97724609 1078.56551758 -236.32949219 1078.94353516 -235.66210938 1079.33300781 C-186.95973296 1107.63685266 -132.46005545 1126.76926208 -76.625 1134.1875 C-75.79919434 1134.30464355 -74.97338867 1134.42178711 -74.12255859 1134.54248047 C7.98123185 1145.82148659 92.84807599 1122.70141814 170.0625 1097.0625 C170.78662079 1096.82244232 171.51074158 1096.58238464 172.25680542 1096.33505249 C174.28062999 1095.66222465 176.30276893 1094.98461245 178.32421875 1094.3046875 C180.04644653 1093.72630127 180.04644653 1093.72630127 181.8034668 1093.13623047 C184.27310719 1092.42894173 184.27310719 1092.42894173 185.375 1091.1875 C184.33085938 1090.62804688 183.28671875 1090.06859375 182.2109375 1089.4921875 C153.04331479 1073.679186 125.7547944 1054.53702662 100.375 1033.1875 C99.84342285 1032.74083984 99.3118457 1032.29417969 98.76416016 1031.83398438 C87.48759455 1022.33454638 76.57020689 1012.51681028 66.2265625 1002.00390625 C64.31774072 1000.06494194 64.31774072 1000.06494194 61.75 998.125 C58.95416908 995.84419057 56.79766566 993.267132 54.4609375 990.52734375 C52.03512432 987.80625369 49.47038481 985.24460739 46.875 982.6875 C42.49163833 978.35051143 38.35914762 973.89235725 34.375 969.1875 C33.48507468 968.14913952 32.59438215 967.11143631 31.703125 966.07421875 C29.65041484 963.68503761 27.60137016 961.29278366 25.5546875 958.8984375 C23.48529302 956.4792862 21.40722693 954.06811267 19.3203125 951.6640625 C13.40137771 944.83230964 7.69355821 937.88040346 2.1484375 930.7421875 C-0.20479141 927.71422156 -2.59728511 924.72005581 -5.00292969 921.73364258 C-11.41452517 913.77351922 -17.64654294 905.68652684 -23.82861328 897.54736328 C-25.76399231 895.00490967 -27.70757076 892.46886802 -29.65234375 889.93359375 C-35.85200085 881.84239224 -42.02963247 873.75043375 -47.90795898 865.421875 C-53.0940279 858.07861638 -58.46657332 850.87171941 -63.81054688 843.64306641 C-66.17137651 840.4480685 -68.52787895 837.24989595 -70.88378906 834.05126953 C-72.04675595 832.47249143 -73.21016915 830.894042 -74.37402344 829.31591797 C-77.29843432 825.35010365 -80.21716605 821.380332 -83.125 817.40234375 C-94.71947198 801.56082428 -106.75672758 786.10930919 -119.20117188 770.92724609 C-120.47726304 769.36801673 -121.74687381 767.803489 -123.015625 766.23828125 C-136.09311809 750.1266216 -149.92742935 734.83763191 -164.5625 720.125 C-165.15264893 719.53017822 -165.74279785 718.93535645 -166.35083008 718.32250977 C-170.61058059 714.07830797 -175.05437389 710.09344806 -179.625 706.1875 C-180.26928955 705.63650635 -180.9135791 705.0855127 -181.57739258 704.51782227 C-197.89714398 690.67045088 -215.03519591 678.79141425 -233.625 668.1875 C-234.39537598 667.74664063 -235.16575195 667.30578125 -235.95947266 666.8515625 C-272.62540041 646.11060487 -313.27107388 636.97788131 -354.625 631.1875 C-354.625 630.5275 -354.625 629.8675 -354.625 629.1875 C-312.22328161 607.01967639 -269.41296171 588.70871824 -222.7265625 577.625 C-221.72052979 577.38112549 -220.71449707 577.13725098 -219.67797852 576.88598633 C-217.56450788 576.40244858 -215.43809867 575.97343714 -213.30444336 575.58862305 C-207.7468961 574.67647501 -207.7468961 574.67647501 -203.17285156 571.70947266 C-202.1706005 569.83012101 -201.53805774 568.04252951 -200.9375 566 C-200.40738402 564.55186619 -199.8693551 563.10660915 -199.32421875 561.6640625 C-199.05399902 560.92317383 -198.7837793 560.18228516 -198.50537109 559.41894531 C-194.20721224 548.52455488 -187.37384436 538.86620568 -179.625 530.1875 C-178.89410156 529.33671875 -178.16320313 528.4859375 -177.41015625 527.609375 C-152.67114068 499.26168054 -117.93231674 483.63770179 -81.625 476.1875 C-80.77808594 476.00960938 -79.93117188 475.83171875 -79.05859375 475.6484375 C-12.14108733 462.2861462 55.18208848 486.17400852 110.66162109 522.37255859 C116.48305609 526.26643548 122.07087787 530.43879182 127.57226562 534.77001953 C129.40774224 536.21324505 131.25688775 537.63728888 133.109375 539.05859375 C139.33805442 543.86159031 145.34800645 548.80788829 151.140625 554.13671875 C153.22666886 556.05135691 155.35182046 557.90572958 157.5 559.75 C161.00323338 562.7941403 164.25208949 566.04269632 167.50390625 569.3515625 C169.50685555 571.37268279 169.50685555 571.37268279 172.4375 573.6875 C175.46536607 576.26440729 177.89670038 579.00765869 180.46484375 582.02734375 C182.46919215 584.29401996 184.5807715 586.39113264 186.75 588.5 C190.87999329 592.57399338 194.50996352 596.91988523 198.1328125 601.4453125 C200.26124621 604.04837952 202.47213692 606.52758633 204.75 609 C209.74863524 614.49936209 214.2906847 620.3205838 218.83007812 626.19677734 C220.46438725 628.30268073 222.11363336 630.39622517 223.765625 632.48828125 C230.56503584 641.12185532 237.09449542 649.88493159 243.375 658.90234375 C246.50487788 663.39380109 249.71871638 667.82204119 252.9375 672.25 C257.8558514 679.03335898 262.64879156 685.89048386 267.375 692.80859375 C272.98635621 701.01730455 278.68958149 709.1630214 284.37597656 717.31982422 C285.66754519 719.17262895 286.95859731 721.0257939 288.24902344 722.87939453 C313.45111784 759.07418182 339.64651497 794.87733197 369.671875 827.265625 C371.46438071 829.20318898 373.24581201 831.15106122 375.015625 833.109375 C383.9786476 843.01587366 393.19193896 852.84923767 403.3984375 861.4921875 C405.88360194 863.6237317 408.27940146 865.84433599 410.6875 868.0625 C415.57874665 872.51273261 420.57585406 876.7749048 425.75195312 880.89013672 C426.88323994 881.79441742 428.0091558 882.70544093 429.13085938 883.62158203 C499.69277571 941.22277332 587.70871865 974.65072642 844.11254883 1010.89746094 C848.94865402 1011.04143761 853.60032015 1011.39280567 858.375 1012.1875 C855.51397393 1015.27279698 852.68778339 1017.36197908 849.03515625 1019.4375 C847.98376465 1020.03933105 846.93237305 1020.64116211 845.84912109 1021.26123047 C844.72328613 1021.89689941 843.59745117 1022.53256836 842.4375 1023.1875 C841.2531081 1023.86159778 840.0690299 1024.53624701 838.88525391 1025.21142578 C836.49724617 1026.57257313 834.10738429 1027.93038309 831.71630859 1029.28613281 C828.83950587 1030.92317356 825.97319903 1032.57590175 823.11328125 1034.2421875 C753.52650401 1074.6895887 678.68835335 1107.72538341 593.25 1130.625 C592.45434631 1130.83482513 591.65869263 1131.04465027 590.83892822 1131.26083374 C563.47652856 1138.44270862 563.47652856 1138.44270862 556.375 1138.1875 C556.16875 1139.363125 555.9625 1140.53875 555.75 1141.75 C550.19911663 1166.42059276 534.64288508 1190.35946467 517.74243164 1208.61621094 C515.55164019 1210.99564948 513.40054341 1213.40500871 511.25390625 1215.82421875 C506.2817591 1221.35405682 501.08133233 1226.62905905 495.8125 1231.875 C494.47155273 1233.22174805 494.47155273 1233.22174805 493.10351562 1234.59570312 C488.60040949 1239.09222096 484.04285182 1243.44969321 479.21362305 1247.59399414 C476.24881649 1250.16354564 473.4160193 1252.87087373 470.5625 1255.5625 C465.57089254 1260.23308016 460.47256213 1264.68367477 455.1328125 1268.95703125 C452.64748405 1270.96711984 450.21661319 1273.02935965 447.79589844 1275.11645508 C440.56973548 1281.33240309 433.02926343 1287.04892119 425.36181641 1292.70654297 C423.50940341 1294.08731677 421.67908715 1295.49167213 419.85546875 1296.91015625 C353.4745567 1348.26177239 274.45998063 1386.40757338 36.375 1437.1875 C35.31625168 1437.24945053 35.31625168 1437.24945053 34.2361145 1437.31265259 C19.71757773 1438.14591509 5.2282308 1438.38973584 -9.3125 1438.375 C-10.42506165 1438.37439575 -11.53762329 1438.3737915 -12.68389893 1438.37316895 C-31.73218938 1438.34526235 -50.64803344 1437.86270808 -69.625 1436.1875 C-70.3448407 1436.12433594 -71.0646814 1436.06117187 -71.80633545 1435.99609375 C-154.03953609 1428.68269175 -234.87587754 1407.86426224 -319.625 1368.1875 C-320.24717407 1367.88737 -320.86934814 1367.58723999 -321.51037598 1367.27801514 C-339.07797361 1358.79191656 -356.25231912 1349.8872867 -372.9609375 1339.78857422 C-375.48156399 1338.27370357 -378.01751839 1336.78989741 -380.5625 1335.31640625 C-406.80569055 1320.02691834 -431.99054488 1302.24417738 -455.625 1283.1875 C-456.56601562 1282.42953125 -457.50703125 1281.6715625 -458.4765625 1280.890625 C-468.21722192 1272.97458478 -477.8384273 1264.91205822 -487.11328125 1256.453125 C-489.20868675 1254.56302361 -491.3242316 1252.70355809 -493.453125 1250.8515625 C-503.54849226 1242.03267507 -513.19374136 1232.70925109 -522.6875 1223.25 C-523.72185181 1222.22253662 -523.72185181 1222.22253662 -524.77709961 1221.17431641 C-528.65089093 1217.28875065 -532.33296099 1213.29465431 -535.91674805 1209.14086914 C-538.69005828 1205.96961644 -541.60250092 1202.93231903 -544.5 1199.875 C-549.36177601 1194.70475357 -554.01245997 1189.44493549 -558.44140625 1183.89453125 C-560.38058476 1181.49050494 -562.37575373 1179.14777948 -564.39892578 1176.81445312 C-571.621382 1168.45133432 -578.17930928 1159.61123289 -584.74169922 1150.7265625 C-586.5132337 1148.33818312 -588.30200768 1145.96402662 -590.09765625 1143.59375 C-609.85187928 1117.38326872 -627.17011405 1089.12977829 -642.625 1060.1875 C-643.14916504 1059.20620117 -643.67333008 1058.22490234 -644.21337891 1057.21386719 C-685.99124019 978.61383047 -712.82235012 892.88574092 -724.625 792.1875 C-724.7085675 791.41412292 -724.79213501 790.64074585 -724.87823486 789.84393311 C-729.96197156 742.28319823 -729.82552041 692.72795269 -724.625 645.1875 C-724.54014343 644.4042334 -724.45528687 643.6209668 -724.36785889 642.81396484 C-715.02514655 557.5213136 -690.59735204 476.62197142 -631.625 359.1875 C-631.16754395 358.39053711 -630.71008789 357.59357422 -630.23876953 356.77246094 C-610.68243798 322.74832511 -587.70739776 289.8847726 -562.12890625 260.125 C-559.78242706 257.37218822 -557.51095946 254.57312179 -555.25 251.75 C-551.17408898 246.73574976 -546.83647206 242.00707713 -542.40478516 237.30883789 C-539.67135184 234.40908456 -536.99864092 231.47821087 -534.40063477 228.45605469 C-530.75797333 224.28400134 -526.92510842 220.34278062 -523.00390625 216.43359375 C-521.94851906 215.37677147 -521.94851906 215.37677147 -520.87181091 214.29859924 C-519.39485352 212.82096633 -517.91665258 211.34457543 -516.43725586 209.86938477 C-514.19334915 207.63083519 -511.95483296 205.38699527 -509.71679688 203.14257812 C-508.27115382 201.69759596 -506.82520055 200.25292408 -505.37890625 198.80859375 C-504.7203212 198.14798447 -504.06173615 197.48737518 -503.38319397 196.80674744 C-499.49877458 192.94153521 -495.50564592 189.25664357 -491.35455322 185.67893982 C-489.1352696 183.76519243 -486.97527953 181.78968199 -484.8125 179.8125 C-480.49374343 175.91508553 -476.04737949 172.21449645 -471.5234375 168.55859375 C-468.99585342 166.49088009 -466.51131321 164.38158131 -464.03759766 162.25 C-456.839368 156.06439892 -449.35768651 150.32843618 -441.70654297 144.71582031 C-439.68553777 143.23194832 -437.67278218 141.73739444 -435.66015625 140.2421875 C-407.62662698 119.56687382 -378.08709333 100.97685668 -347.33447266 84.63037109 C-344.62670919 83.18841019 -341.92860154 81.72941642 -339.23046875 80.26953125 C-265.14482666 40.52718006 -181.23017761 15.50607342 -71.0625 3 C-69.68393829 2.87257919 -69.68393829 2.87257919 -68.27752686 2.74258423 C-45.49329341 0.65939162 -22.88025816 -0.02046519 0 0 Z " fill="#8A131B" transform="translate(1422.625,693.8125)"/>
<path d="M0 0 C1.83547662 1.44322552 3.68462213 2.86726935 5.53710938 4.28857422 C11.7657888 9.09157078 17.77574083 14.03786876 23.56835938 19.36669922 C25.65440324 21.28133738 27.77955483 23.13571005 29.92773438 24.97998047 C33.43096776 28.02412077 36.67982386 31.27267679 39.93164062 34.58154297 C41.93458993 36.60266326 41.93458993 36.60266326 44.86523438 38.91748047 C47.89310045 41.49438776 50.32443475 44.23763915 52.89257812 47.25732422 C54.89692653 49.52400043 57.00850588 51.62111311 59.17773438 53.72998047 C63.30772767 57.80397385 66.93769789 62.1498657 70.56054688 66.67529297 C72.68898059 69.27835998 74.89987129 71.7575668 77.17773438 74.22998047 C82.17636962 79.72934256 86.71841907 85.55056426 91.2578125 91.42675781 C92.89212163 93.5326612 94.54136773 95.62620564 96.19335938 97.71826172 C102.99277022 106.35183578 109.52222979 115.11491206 115.80273438 124.13232422 C118.93261226 128.62378156 122.14645075 133.05202165 125.36523438 137.47998047 C130.28358577 144.26333945 135.07652594 151.12046433 139.80273438 158.03857422 C145.41409058 166.24728502 151.11731586 174.39300187 156.80371094 182.54980469 C158.09527957 184.40260942 159.38633169 186.25577436 160.67675781 188.109375 C185.87885222 224.30416229 212.07424934 260.10731244 242.09960938 292.49560547 C243.89211509 294.43316945 245.67354638 296.38104168 247.44335938 298.33935547 C256.40638197 308.24585413 265.61967334 318.07921814 275.82617188 326.72216797 C278.31133631 328.85371217 280.70713584 331.07431646 283.11523438 333.29248047 C288.00648102 337.74271307 293.00358843 342.00488527 298.1796875 346.12011719 C299.31097431 347.02439789 300.43689017 347.9354214 301.55859375 348.8515625 C372.12051008 406.45275379 460.13645303 439.88070689 716.5402832 476.12744141 C721.3763884 476.27141807 726.02805453 476.62278614 730.80273438 477.41748047 C727.9417083 480.50277745 725.11551777 482.59195955 721.46289062 484.66748047 C720.41149902 485.26931152 719.36010742 485.87114258 718.27685547 486.49121094 C717.15102051 487.12687988 716.02518555 487.76254883 714.86523438 488.41748047 C713.68084248 489.09157825 712.49676428 489.76622747 711.31298828 490.44140625 C708.92498055 491.8025536 706.53511867 493.16036356 704.14404297 494.51611328 C701.26724025 496.15315402 698.4009334 497.80588222 695.54101562 499.47216797 C626.08268543 539.84490916 551.55879133 572.51059485 308.10400391 616.7331543 C305.25065252 616.72854364 302.39772966 616.73539223 299.54443359 616.75366211 C238.19947159 617.1422248 179.62490639 605.41646014 121.80273438 585.41748047 C120.99545898 585.14081543 120.18818359 584.86415039 119.35644531 584.57910156 C65.80304099 566.07260774 16.06836411 534.64538505 -27.19726562 498.41748047 C-27.8040918 497.90975098 -28.41091797 497.40202148 -29.03613281 496.87890625 C-40.24817174 487.46091456 -51.07424261 477.67342568 -61.34570312 467.23388672 C-63.25452491 465.29492241 -63.25452491 465.29492241 -65.82226562 463.35498047 C-68.61809654 461.07417103 -70.77459997 458.49711247 -73.11132812 455.75732422 C-75.5371413 453.03623416 -78.10188081 450.47458786 -80.69726562 447.91748047 C-85.08062729 443.5804919 -89.21311801 439.12233772 -93.19726562 434.41748047 C-94.08719095 433.37911999 -94.97788347 432.34141678 -95.86914062 431.30419922 C-97.92185079 428.91501808 -99.97089546 426.52276413 -102.01757812 424.12841797 C-104.08697261 421.70926667 -106.1650387 419.29809313 -108.25195312 416.89404297 C-114.17088792 410.06229011 -119.87870741 403.11038393 -125.42382812 395.97216797 C-127.77705703 392.94420203 -130.16955073 389.95003628 -132.57519531 386.96362305 C-138.9867908 379.00349969 -145.21880857 370.91650731 -151.40087891 362.77734375 C-153.33625793 360.23489014 -155.27983639 357.69884848 -157.22460938 355.16357422 C-163.42426648 347.07237271 -169.6018981 338.98041422 -175.48022461 330.65185547 C-180.66629353 323.30859685 -186.03883894 316.10169988 -191.3828125 308.87304688 C-193.74364213 305.67804897 -196.10014457 302.47987642 -198.45605469 299.28125 C-199.61902157 297.7024719 -200.78243477 296.12402247 -201.94628906 294.54589844 C-204.87069995 290.58008412 -207.78943167 286.61031247 -210.69726562 282.63232422 C-222.29173761 266.79080475 -234.32899321 251.33928966 -246.7734375 236.15722656 C-248.04952867 234.5979972 -249.31913944 233.03346947 -250.58789062 231.46826172 C-263.66538371 215.35660207 -277.49969497 200.06761238 -292.13476562 185.35498047 C-293.01998901 184.4627478 -293.01998901 184.4627478 -293.9230957 183.55249023 C-298.18284621 179.30828844 -302.62663951 175.32342853 -307.19726562 171.41748047 C-307.84155518 170.86648682 -308.48584473 170.31549316 -309.1496582 169.74780273 C-325.46940961 155.90043135 -342.60746153 144.02139472 -361.19726562 133.41748047 C-361.9676416 132.97662109 -362.73801758 132.53576172 -363.53173828 132.08154297 C-400.19766603 111.34058534 -440.8433395 102.20786178 -482.19726562 96.41748047 C-482.19726562 95.75748047 -482.19726562 95.09748047 -482.19726562 94.41748047 C-439.79554723 72.24965686 -396.98522733 53.93869871 -350.29882812 42.85498047 C-349.29279541 42.61110596 -348.2867627 42.36723145 -347.25024414 42.1159668 C-345.13677351 41.63242905 -343.0103643 41.20341761 -340.87670898 40.81860352 C-335.31916173 39.90645548 -335.31916173 39.90645548 -330.74511719 36.93945312 C-329.74286613 35.06010148 -329.11032337 33.27250998 -328.50976562 31.22998047 C-327.97964965 29.78184666 -327.44162072 28.33658962 -326.89648438 26.89404297 C-326.62626465 26.1531543 -326.35604492 25.41226562 -326.07763672 24.64892578 C-321.77947787 13.75453535 -314.94610998 4.09618615 -307.19726562 -4.58251953 C-306.46636719 -5.43330078 -305.73546875 -6.28408203 -304.98242188 -7.16064453 C-280.24340631 -35.50833899 -245.50458236 -51.13231774 -209.19726562 -58.58251953 C-207.92689453 -58.84935547 -207.92689453 -58.84935547 -206.63085938 -59.12158203 C-133.82354232 -73.65996864 -56.79419673 -44.71391759 0 0 Z " fill="#F7A71C" transform="translate(1550.197265625,1228.58251953125)"/>
<path d="M0 0 C0.67409283 0.00041416 1.34818565 0.00082832 2.04270554 0.00125504 C23.20937835 0.01751536 44.28550102 0.16710578 65.375 2.1875 C66.19109741 2.26526672 67.00719482 2.34303345 67.84802246 2.42315674 C147.51492867 10.10888372 225.77790231 28.61281645 308.375 69.1875 C309.40882813 69.703125 310.44265625 70.21875 311.5078125 70.75 C347.77864586 88.93276764 381.4083607 112.02829062 412.375 138.1875 C412.98682129 138.70022461 413.59864258 139.21294922 414.22900391 139.74121094 C426.11573117 149.70570496 437.5178523 160.1818498 448.39453125 171.2421875 C450.36139874 173.17414018 452.39931336 174.96541669 454.5 176.75 C457.75720681 179.54826574 460.49210449 182.54771083 463.26171875 185.8203125 C466.01263218 188.90174233 468.93677489 191.78575398 471.875 194.6875 C475.9579612 198.72907983 479.92366999 202.79343354 483.64453125 207.17578125 C485.79033274 209.67033603 488.02085677 212.07968982 490.25 214.5 C494.3406056 218.98547552 498.22317843 223.59330544 502.03515625 228.31640625 C504.11219814 230.86503027 506.2244847 233.37455564 508.36035156 235.87353516 C514.57838306 243.15121011 520.53233704 250.60609756 526.375 258.1875 C527.28258057 259.3640918 527.28258057 259.3640918 528.20849609 260.56445312 C541.44193696 277.75176779 554.23082932 295.21299921 566.375 313.1875 C566.90706055 313.97463379 567.43912109 314.76176758 567.98730469 315.57275391 C581.79085578 336.03912698 595.04207507 356.79906946 607.375 378.1875 C608.12716797 379.49001709 608.12716797 379.49001709 608.89453125 380.81884766 C610.31502769 383.29019288 611.72300028 385.76812303 613.125 388.25 C613.54362305 388.98186523 613.96224609 389.71373047 614.39355469 390.46777344 C614.96444824 391.49112793 614.96444824 391.49112793 615.546875 392.53515625 C615.8778418 393.12304932 616.20880859 393.71094238 616.54980469 394.31665039 C617.54324313 396.56893405 617.96405143 398.76732503 618.375 401.1875 C548.80406663 442.45618208 472.84384876 459.92595911 393.484375 439.79467773 C344.72386101 426.87211096 298.67584007 404.30263007 255.015625 379.390625 C246.52645472 374.55232962 237.95003562 369.87139083 229.375 365.1875 C229.375 364.5275 229.375 363.8675 229.375 363.1875 C230.035 362.8575 230.695 362.5275 231.375 362.1875 C230.26928607 356.41834282 228.80420114 351.12719271 226.25 345.8125 C225.91581055 345.11189453 225.58162109 344.41128906 225.23730469 343.68945312 C216.35470051 325.64928883 205.49120174 308.21560174 193.375 292.1875 C192.92350586 291.58728027 192.47201172 290.98706055 192.00683594 290.36865234 C188.88013444 286.23830439 185.65834443 282.19411863 182.375 278.1875 C181.9217334 277.62981934 181.4684668 277.07213867 181.00146484 276.49755859 C173.74130838 267.6324987 165.82381791 259.43105677 157.75 251.3125 C157.26889771 250.82613068 156.78779541 250.33976135 156.29211426 249.83865356 C149.6665491 243.15702332 142.72958632 237.05731521 135.375 231.1875 C133.5599197 229.62799815 131.74683674 228.06616188 129.9375 226.5 C95.33103832 197.69101257 53.10897384 175.59495359 11.375 159.1875 C10.0147168 158.65213623 10.0147168 158.65213623 8.62695312 158.10595703 C-46.6263664 136.6241606 -106.60878678 128.35436848 -165.625 127.1875 C-166.37233398 127.17090332 -167.11966797 127.15430664 -167.88964844 127.13720703 C-172.47095149 127.04700636 -177.0446448 127.08597717 -181.625 127.1875 C-182.53491699 127.20538574 -183.44483398 127.22327148 -184.38232422 127.24169922 C-269.00830099 129.09699748 -351.06062326 149.44182338 -541.21875 263.9921875 C-543.22736145 265.82471937 -545.26460948 267.60606898 -547.32250977 269.38232422 C-551.31616485 272.87415167 -555.11744021 276.51883541 -558.87109375 280.265625 C-559.5265065 280.91770935 -560.18191925 281.5697937 -560.85719299 282.24163818 C-562.23235046 283.61177239 -563.60619255 284.98322798 -564.97875977 286.35595703 C-567.04879215 288.42380661 -569.12669673 290.48351525 -571.20507812 292.54296875 C-577.77615259 299.08687659 -584.10971441 305.6256533 -589.8371582 312.93212891 C-591.59720674 315.15243866 -593.44918887 317.23549323 -595.375 319.3125 C-610.90712618 336.62851394 -624.35149436 356.46884359 -636.625 376.1875 C-637.34985596 377.35104004 -637.34985596 377.35104004 -638.08935547 378.53808594 C-645.8777422 391.11406217 -652.91819459 404.00570963 -659.625 417.1875 C-660.625 414.1875 -660.625 414.1875 -659.47607422 411.27441406 C-658.58686279 409.50662598 -658.58686279 409.50662598 -657.6796875 407.703125 C-657.35849945 407.0594397 -657.0373114 406.41575439 -656.70639038 405.75256348 C-655.6484771 403.64185539 -654.57513693 401.53948109 -653.5 399.4375 C-652.76126978 397.97825259 -652.02266389 396.51894224 -651.28417969 395.05957031 C-645.54370646 383.76922183 -639.51766503 372.66129436 -633.11474609 361.73144531 C-631.70576845 359.32542319 -630.31498647 356.90965948 -628.92578125 354.4921875 C-609.63555094 321.30895735 -587.14594817 289.2315436 -562.12890625 260.125 C-559.78242706 257.37218822 -557.51095946 254.57312179 -555.25 251.75 C-551.17408898 246.73574976 -546.83647206 242.00707713 -542.40478516 237.30883789 C-539.67135184 234.40908456 -536.99864092 231.47821087 -534.40063477 228.45605469 C-530.75797333 224.28400134 -526.92510842 220.34278062 -523.00390625 216.43359375 C-521.94851906 215.37677147 -521.94851906 215.37677147 -520.87181091 214.29859924 C-519.39485352 212.82096633 -517.91665258 211.34457543 -516.43725586 209.86938477 C-514.19334915 207.63083519 -511.95483296 205.38699527 -509.71679688 203.14257812 C-508.27115382 201.69759596 -506.82520055 200.25292408 -505.37890625 198.80859375 C-504.7203212 198.14798447 -504.06173615 197.48737518 -503.38319397 196.80674744 C-499.49877458 192.94153521 -495.50564592 189.25664357 -491.35455322 185.67893982 C-489.1352696 183.76519243 -486.97527953 181.78968199 -484.8125 179.8125 C-480.49374343 175.91508553 -476.04737949 172.21449645 -471.5234375 168.55859375 C-468.99585342 166.49088009 -466.51131321 164.38158131 -464.03759766 162.25 C-456.839368 156.06439892 -449.35768651 150.32843618 -441.70654297 144.71582031 C-439.68553777 143.23194832 -437.67278218 141.73739444 -435.66015625 140.2421875 C-407.62662698 119.56687382 -378.08709333 100.97685668 -347.33447266 84.63037109 C-344.62670919 83.18841019 -341.92860154 81.72941642 -339.23046875 80.26953125 C-265.14482666 40.52718006 -181.23017761 15.50607342 -71.0625 3 C-69.68393829 2.87257919 -69.68393829 2.87257919 -68.27752686 2.74258423 C-45.49329341 0.65939162 -22.88025816 -0.02046519 0 0 Z " fill="#A3212A" transform="translate(1422.625,693.8125)"/>
<path d="M0 0 C1.46867718 0.65120592 2.93742212 1.30225907 4.40625 1.953125 C28.90965277 12.97980088 52.07459459 27.53481032 74 43 C75.12357123 43.78403575 76.24726474 44.56789629 77.37109375 45.3515625 C93.17636258 56.44183375 108.41947702 68.33217842 123.31298828 80.61279297 C124.83643159 81.8654999 126.36886635 83.1072526 127.90234375 84.34765625 C139.06304779 93.37782941 149.83359287 102.84745286 160.375 112.58984375 C162.53614429 114.57410867 164.71839708 116.5189006 166.9375 118.4375 C171.13756974 122.07521731 175.19671833 125.86133872 179.26416016 129.64575195 C182.21926263 132.3871644 185.20544448 135.05473253 188.3125 137.625 C189.199375 138.40875 190.08625 139.1925 191 140 C191 140.66 191 141.32 191 142 C191.58555664 142.25885986 192.17111328 142.51771973 192.77441406 142.78442383 C195.1688396 144.09221724 196.71093329 145.49736101 198.609375 147.44921875 C199.28226563 148.13306641 199.95515625 148.81691406 200.6484375 149.52148438 C201.34195312 150.23626953 202.03546875 150.95105469 202.75 151.6875 C206.69860525 155.73744778 210.6267798 159.74044383 214.921875 163.42578125 C220.57334994 168.28602201 225.70864493 173.66383988 230.93359375 178.97265625 C234.52936227 182.60339172 238.12146956 186.17057357 242 189.5 C247.62812757 194.33132386 252.73436598 199.68997378 257.93359375 204.97265625 C262.21502841 209.29572561 266.56133087 213.43755572 271.17773438 217.40039062 C273.9179839 219.80581867 276.45611137 222.39038452 279 225 C282.93390584 228.98838006 286.93932405 232.79163058 291.20703125 236.42578125 C293.05429629 238.0476719 294.77756714 239.74660205 296.5 241.5 C299.40336132 244.44882783 302.44254885 247.1613211 305.578125 249.859375 C308.09579446 252.08466994 310.54666727 254.36994598 312.99609375 256.66967773 C318.57576145 261.90811576 324.23899148 266.90369319 330.21875 271.6875 C333.44417154 274.36931117 336.5024856 277.19532307 339.5625 280.0625 C344.07614664 284.28475179 348.68075751 288.27768995 353.5546875 292.0859375 C356.15478785 294.12115982 358.70311369 296.21113316 361.25 298.3125 C384.42471291 317.29431254 408.56692731 335.15003083 434 351 C435.35424072 351.84449707 435.35424072 351.84449707 436.73583984 352.70605469 C486.45222292 383.52110511 539.59216238 405.68591655 597 417 C597.98419922 417.19432617 598.96839844 417.38865234 599.98242188 417.58886719 C606.96160159 418.93173824 613.95833712 420.03977324 621 421 C622.10118164 421.15098145 623.20236328 421.30196289 624.33691406 421.45751953 C661.37928714 426.27084724 699.9880555 425.85048804 737 421 C737.67083618 420.91278687 738.34167236 420.82557373 739.03283691 420.73571777 C800.72141722 412.6635356 860.57567925 395.26672227 917.90356445 371.30102539 C918.94472412 370.86653076 919.98588379 370.43203613 921.05859375 369.984375 C922.42455688 369.40768066 922.42455688 369.40768066 923.81811523 368.81933594 C926 368 926 368 928 368 C927.80883789 369.79907227 927.80883789 369.79907227 927 372 C924.88061523 373.62475586 924.88061523 373.62475586 922.05859375 375.21484375 C921.0126001 375.81176025 919.96660645 376.40867676 918.88891602 377.02368164 C917.74994873 377.6552417 916.61098145 378.28680176 915.4375 378.9375 C914.25073864 379.60648604 913.06446535 380.27633859 911.87866211 380.94702148 C908.2634708 382.98477783 904.63326396 384.99469478 901 387 C899.96133789 387.57524414 898.92267578 388.15048828 897.85253906 388.74316406 C890.93658258 392.56160896 883.98100775 396.30196458 877 400 C875.41348633 400.84062988 875.41348633 400.84062988 873.79492188 401.69824219 C795.85658924 442.84912479 712.43385149 475.68365932 574 498 C573.10705734 498.08985168 572.21411469 498.17970337 571.29411316 498.27227783 C554.2947336 499.9417831 537.36584404 500.34557639 520.30126953 500.31567383 C517.44791814 500.31106317 514.59499528 500.31791176 511.74169922 500.33618164 C450.39673721 500.72474433 391.82217202 488.99897967 334 469 C333.19272461 468.72333496 332.38544922 468.44666992 331.55371094 468.16162109 C278.00030661 449.65512727 228.26562974 418.22790459 185 382 C184.39317383 381.49227051 183.78634766 380.98454102 183.16113281 380.46142578 C171.94909388 371.0434341 161.12302302 361.25594521 150.8515625 350.81640625 C148.94274072 348.87744194 148.94274072 348.87744194 146.375 346.9375 C143.57916908 344.65669057 141.42266566 342.079632 139.0859375 339.33984375 C136.66012432 336.61875369 134.09538481 334.05710739 131.5 331.5 C127.11663833 327.16301143 122.98414762 322.70485725 119 318 C118.11007468 316.96163952 117.21938215 315.92393631 116.328125 314.88671875 C114.27541484 312.49753761 112.22637016 310.10528366 110.1796875 307.7109375 C108.11029302 305.2917862 106.03222693 302.88061267 103.9453125 300.4765625 C98.02637771 293.64480964 92.31855821 286.69290346 86.7734375 279.5546875 C84.42020859 276.52672156 82.02771489 273.53255581 79.62207031 270.54614258 C73.21047483 262.58601922 66.97845706 254.49902684 60.79638672 246.35986328 C58.86100769 243.81740967 56.91742924 241.28136802 54.97265625 238.74609375 C48.77299915 230.65489224 42.59536753 222.56293375 36.71704102 214.234375 C31.5309721 206.89111638 26.15842668 199.68421941 20.81445312 192.45556641 C18.45362349 189.2605685 16.09712105 186.06239595 13.74121094 182.86376953 C12.57824405 181.28499143 11.41483085 179.706542 10.25097656 178.12841797 C7.32656568 174.16260365 4.40783395 170.192832 1.5 166.21484375 C-10.09447198 150.37332428 -22.13172758 134.92180919 -34.57617188 119.73974609 C-35.85226304 118.18051673 -37.12187381 116.615989 -38.390625 115.05078125 C-51.46811809 98.9391216 -65.30242935 83.65013191 -79.9375 68.9375 C-80.82272339 68.04526733 -80.82272339 68.04526733 -81.72583008 67.13500977 C-85.98558059 62.89080797 -90.42937389 58.90594806 -95 55 C-95.64428955 54.44900635 -96.2885791 53.8980127 -96.95239258 53.33032227 C-113.27214398 39.48295088 -130.41019591 27.60391425 -149 17 C-149.77037598 16.55914063 -150.54075195 16.11828125 -151.33447266 15.6640625 C-188.00040041 -5.07689513 -228.64607388 -14.20961869 -270 -20 C-270 -20.66 -270 -21.32 -270 -22 C-266.10319684 -23.46130118 -262.4971941 -24.18942578 -258.37841797 -24.67163086 C-254.72787771 -25.17563175 -251.13489237 -25.93262101 -247.52392578 -26.66308594 C-236.60047508 -28.87202458 -225.66626511 -30.73383274 -214.625 -32.25 C-213.44462158 -32.41282471 -212.26424316 -32.57564941 -211.0480957 -32.7434082 C-138.40994941 -42.4322677 -66.46723491 -30.08783992 0 0 Z " fill="#DA9F13" transform="translate(1338,1345)"/>
<path d="M0 0 C4.96645948 0.5906017 9.41392303 1.62654609 14.1875 3.1953125 C14.8702449 3.41919144 15.55298981 3.64307037 16.25642395 3.87373352 C18.5070762 4.61602983 20.7538293 5.36925718 23 6.125 C23.78233002 6.38677032 24.56466003 6.64854065 25.37069702 6.91824341 C64.85999041 20.17027545 103.38501239 36.14299542 141 54 C143.11844743 54.99748537 145.23693619 55.99488296 147.35546875 56.9921875 C170.74652658 68.05730872 193.6010743 80.04763921 216 93 C217.13727539 93.65371582 218.27455078 94.30743164 219.44628906 94.98095703 C234.92471551 103.88120999 250.13030586 113.06845246 264.98388672 122.98876953 C267.71670981 124.81109401 270.45602194 126.6229635 273.19854736 128.43061829 C275.6090321 130.02012105 278.01694313 131.61349171 280.42425537 133.20779419 C282.12055958 134.3306878 283.81830732 135.45139981 285.51611328 136.57202148 C311.57393372 153.91157525 336.85221342 175.06082239 356 200 C356.79535156 201.00160156 357.59070313 202.00320313 358.41015625 203.03515625 C369.05715743 216.5083921 378.03867272 230.79262093 386 246 C386.4125 246.78020508 386.825 247.56041016 387.25 248.36425781 C399.05690608 270.97263812 407.05219302 295.81049727 411 321 C411.18328857 322.16861572 411.36657715 323.33723145 411.55541992 324.54125977 C413.09497173 335.4356559 413.3585709 346.19561334 413.3125 357.1875 C413.30976578 358.54337219 413.30976578 358.54337219 413.30697632 359.92663574 C413.26201798 373.17045424 412.81149778 386.01499465 410 399 C409.82839355 399.84788086 409.65678711 400.69576172 409.47998047 401.56933594 C402.88168968 433.84730176 388.86507616 464.20455281 367 489 C366.57364258 489.48662109 366.14728516 489.97324219 365.70800781 490.47460938 C356.81453284 500.57821161 346.92293699 511.48619097 335 518 C332.98828125 518.09375 332.98828125 518.09375 331 517 C329.2179935 514.99487081 327.64226917 513.02949324 326.0625 510.875 C321.99524919 505.51406606 317.80044731 500.319974 313.375 495.25 C312.82577881 494.6206958 312.27655762 493.9913916 311.71069336 493.34301758 C307.83169163 488.91757954 303.91028325 484.53113667 299.95703125 480.171875 C298.21583115 478.23952519 296.50968171 476.2834207 294.8125 474.3125 C284.69800462 462.77247171 273.96022068 451.85726125 263.125 441 C262.53755005 440.40996185 261.9501001 439.81992371 261.34484863 439.21200562 C255.62147087 433.46876749 249.91825938 427.76289698 243.74414062 422.49902344 C240.8025323 419.97082144 238.00849405 417.28596941 235.1875 414.625 C230.21681045 409.97360822 225.13778808 405.5484995 219.8203125 401.29296875 C217.20341767 399.16538251 214.6554843 396.98010234 212.11401367 394.76416016 C204.39008437 388.03893068 196.3518391 381.80546048 188.17333984 375.64550781 C186.01799873 374.01362744 183.8761687 372.36560044 181.73828125 370.7109375 C173.9632524 364.69978778 166.09180382 358.88053046 158.03881836 353.24682617 C132.24913995 335.19254751 106.51566302 314.38841142 86.01171875 290.34765625 C84.42976097 288.50152688 82.82801574 286.68252912 81.20703125 284.87109375 C68.20776612 270.25249391 56.4227851 254.55766407 46 238 C45.54592773 237.27973633 45.09185547 236.55947266 44.62402344 235.81738281 C1.99180681 167.64619125 -18.88545307 87.71882171 -2 8 C-1.36913221 5.32205267 -0.69505932 2.66232543 0 0 Z " fill="#F89A2D" transform="translate(290,535)"/>
<path d="M0 0 C0.87574677 -0.00696899 1.75149353 -0.01393799 2.65377808 -0.02111816 C5.46454742 -0.03840851 8.27511719 -0.044838 11.0859375 -0.046875 C12.52706909 -0.04838562 12.52706909 -0.04838562 13.99731445 -0.04992676 C35.41560115 -0.03473902 55.58587146 2.35361084 76.4609375 7.203125 C77.49456046 10.36965067 77.42427482 12.1815879 76.35961914 15.32104492 C76.09022018 16.13095886 75.82082123 16.9408728 75.54325867 17.77532959 C75.23894424 18.65255676 74.93462982 19.52978394 74.62109375 20.43359375 C74.30819901 21.35972473 73.99530426 22.28585571 73.67292786 23.24005127 C72.63553865 26.29465565 71.58078861 29.34287715 70.5234375 32.390625 C70.16324524 33.43799835 69.80305298 34.4853717 69.4319458 35.56448364 C49.42748589 93.68280286 24.87786967 150.51825518 -4.93408203 204.30517578 C-6.56822984 207.25578948 -8.19224381 210.21184917 -9.81640625 213.16796875 C-22.07524881 235.37460418 -35.20295912 257.04928385 -49.2109375 278.19775391 C-50.37810886 279.96009684 -51.53735129 281.72768559 -52.6953125 283.49609375 C-65.24248548 302.54825599 -78.67581753 320.75503905 -94.5390625 337.203125 C-95.23306152 337.92435547 -95.92706055 338.64558594 -96.64208984 339.38867188 C-106.40479849 349.47879471 -116.22635526 358.88577744 -127.5390625 367.203125 C-128.95445312 368.31107422 -128.95445312 368.31107422 -130.3984375 369.44140625 C-180.49099385 408.39459579 -245.54494038 427.2635741 -308.60742188 419.60107422 C-350.37149325 413.93190064 -387.88816024 397.1945835 -418.5390625 368.203125 C-419.84617187 366.99269531 -419.84617187 366.99269531 -421.1796875 365.7578125 C-428.98404693 358.28792562 -435.24758322 349.95410054 -441.5390625 341.203125 C-438.3513257 337.93569478 -435.09945508 334.93295198 -431.5390625 332.078125 C-422.41794266 324.687931 -413.4690495 317.12720663 -404.78125 309.23046875 C-402.82697826 307.46345301 -400.84846513 305.73398971 -398.8515625 304.015625 C-387.15823275 293.79689315 -376.07984443 282.90792858 -365.12011719 271.91455078 C-363.01612513 269.80512843 -360.90674215 267.70120061 -358.796875 265.59765625 C-357.42936628 264.22948765 -356.0621673 262.86100939 -354.6953125 261.4921875 C-354.07853638 260.87743561 -353.46176025 260.26268372 -352.82629395 259.62930298 C-349.09225403 255.8753714 -345.54597918 252.00298744 -342.08956909 247.991745 C-339.84212184 245.39915422 -337.50268883 242.90131243 -335.1640625 240.390625 C-330.8735138 235.74620903 -326.81033836 230.96553701 -322.84375 226.0390625 C-320.78110217 223.50095687 -318.68077412 221.00494349 -316.5559082 218.51928711 C-310.33614961 211.24126403 -304.38705314 203.7819508 -298.5390625 196.203125 C-297.92337402 195.4080957 -297.30768555 194.61306641 -296.67333984 193.79394531 C-289.86219734 184.98657697 -283.08317087 176.18346307 -276.8515625 166.953125 C-265.38897181 149.97652907 -252.34249777 134.31353005 -238.5390625 119.203125 C-237.65992188 118.21957031 -236.78078125 117.23601562 -235.875 116.22265625 C-227.90530596 107.36455523 -219.37471795 99.19234322 -210.5390625 91.203125 C-209.95930664 90.6786377 -209.37955078 90.15415039 -208.78222656 89.61376953 C-172.84744092 57.38154645 -129.95873699 32.30256944 -84.5390625 16.203125 C-83.26603271 15.75114746 -83.26603271 15.75114746 -81.96728516 15.29003906 C-55.98475971 6.2289735 -27.60170995 0.14910416 0 0 Z " fill="#F89A2D" transform="translate(2269.5390625,315.796875)"/>
<path d="M0 0 C1.40330566 0.24145752 1.40330566 0.24145752 2.83496094 0.48779297 C43.21441373 7.70286512 80.99073405 25.17225956 112 52 C112.95648437 52.82628906 113.91296875 53.65257812 114.8984375 54.50390625 C133.18102685 70.67696606 147.7389634 89.3917102 159 111 C159.47348877 111.90588867 159.47348877 111.90588867 159.95654297 112.83007812 C170.56251731 133.46444572 176.37369119 155.92459412 178 179 C176.96746094 179.16491943 175.93492187 179.32983887 174.87109375 179.49975586 C97.7934287 191.89223581 22.53004359 212.84536699 -48.44311523 245.69384766 C-104.68029311 271.72206626 -164.24803115 287.28372439 -226.4375 287.1875 C-227.170896 287.18689575 -227.90429199 287.1862915 -228.65991211 287.18566895 C-277.20846071 287.07815623 -326.32113811 277.7429244 -370 256 C-370.72928711 255.64083496 -371.45857422 255.28166992 -372.20996094 254.91162109 C-396.59483563 242.79535248 -418.07637913 226.45921547 -438 208 C-436.48947977 204.32329416 -434.3511385 202.28125538 -431.375 199.6875 C-430.01761719 198.49640625 -430.01761719 198.49640625 -428.6328125 197.28125 C-427.76398438 196.5284375 -426.89515625 195.775625 -426 195 C-425.35804688 194.4328125 -424.71609375 193.865625 -424.0546875 193.28125 C-414.73274058 185.04888129 -405.27362427 176.9621081 -395.6171875 169.125 C-393.90768432 167.73698547 -392.20425254 166.34145038 -390.5078125 164.9375 C-370.81094371 148.65315863 -350.3274791 133.23618317 -329.35205078 118.64111328 C-326.72727929 116.80971262 -324.11169182 114.96557009 -321.49609375 113.12109375 C-310.31076927 105.25560586 -299.01949963 97.65597039 -287.38330078 90.47412109 C-284.9145437 88.9471435 -282.45477636 87.40642123 -279.99609375 85.86328125 C-261.01312206 73.98204719 -241.66381917 62.71552981 -222 52 C-220.51717529 51.18692383 -220.51717529 51.18692383 -219.00439453 50.35742188 C-177.6269085 27.70764583 -135.87926498 8.17661599 -89 0 C-88.05737305 -0.16516113 -87.11474609 -0.33032227 -86.14355469 -0.50048828 C-58.1903837 -5.1497343 -27.88955069 -4.90478127 0 0 Z " fill="#F89A2D" transform="translate(537,1756)"/>
<path d="M0 0 C3.27679215 1.09226405 3.92308502 1.79929154 6.0625 4.375 C8.92860054 7.76001558 11.86737252 11.05228794 14.875 14.3125 C18.92521292 18.75250784 22.75534122 23.31934281 26.52734375 27.99609375 C29.40883633 31.49667478 32.38744562 34.90257325 35.375 38.3125 C40.98644643 44.74238376 46.31759539 51.34182856 51.52832031 58.09863281 C53.1110899 60.14352491 54.70679524 62.1778432 56.3046875 64.2109375 C64.01627225 74.03957665 71.54274805 83.99223585 78.88916016 94.09692383 C80.0476893 95.69026989 81.20732102 97.28282409 82.37200928 98.87167358 C90.75346731 110.30647104 98.7463878 121.94415389 106.5 133.8125 C107.0431485 134.64138733 107.586297 135.47027466 108.14590454 136.32427979 C116.29550324 148.76234641 124.3825982 161.22651543 132 174 C132.5352832 174.8962207 133.07056641 175.79244141 133.62207031 176.71582031 C164.50521132 228.62578073 195.07794003 282.59124415 206.8125 342.4375 C207.0074707 343.42991699 207.20244141 344.42233398 207.40332031 345.44482422 C210.3738736 361.47900118 211.38160944 377.34030202 211.3125 393.625 C211.31034485 394.54442383 211.3081897 395.46384766 211.30596924 396.41113281 C211.25206052 410.78512794 210.73749511 424.85012638 208 439 C207.70198486 440.55098389 207.70198486 440.55098389 207.39794922 442.13330078 C198.80187906 485.3454557 180.06499371 525.47220332 149.45947266 557.47314453 C148.47491573 558.50315775 147.4955186 559.53812459 146.52099609 560.57763672 C117.88021333 591.05306037 76.76908267 611.93827498 35 616 C33.00002666 616.01032582 30.99996663 616.01155253 29 616 C28.82984375 614.94651367 28.6596875 613.89302734 28.484375 612.80761719 C24.45657858 588.00329737 19.86035506 563.43875917 14 539 C13.8410022 538.33349426 13.68200439 537.66698853 13.51818848 536.98028564 C8.34185748 515.32829933 1.93502469 494.14150513 -5 473 C-5.31260773 472.04220642 -5.31260773 472.04220642 -5.63153076 471.06506348 C-15.02662821 442.29052176 -26.40960537 414.38700835 -38.90625 386.8359375 C-59.79715734 340.76914244 -73.27477005 293.46722236 -78 243 C-78.07202637 242.24170898 -78.14405273 241.48341797 -78.21826172 240.70214844 C-85.22353797 162.54779318 -65.93549738 78.73744387 -15.23828125 17.6484375 C-10.24370184 11.69329648 -5.15159031 5.81971465 0 0 Z " fill="#F89A2D" transform="translate(900,79)"/>
<path d="M0 0 C15.19048027 66.80358936 23.67656223 135.26676319 25.5625 203.75 C25.58334656 204.49667938 25.60419312 205.24335876 25.62567139 206.01266479 C26.98247152 255.60128929 27.81488658 308.15175378 18 357 C17.68506592 358.58337158 17.68506592 358.58337158 17.36376953 360.19873047 C8.49806569 403.67737826 -9.42993752 445.76198962 -38 480 C-38.46873535 480.57024902 -38.9374707 481.14049805 -39.42041016 481.72802734 C-50.11953211 494.72266311 -61.67968753 506.66918947 -75 517 C-75.969375 517.78632812 -76.93875 518.57265625 -77.9375 519.3828125 C-86.79106035 526.44352688 -96.21475857 532.31895832 -106 538 C-106.62600098 538.36867188 -107.25200195 538.73734375 -107.89697266 539.1171875 C-131.35517655 552.81992093 -158.14430877 560.70054895 -185 564 C-186.04929687 564.13148438 -187.09859375 564.26296875 -188.1796875 564.3984375 C-217.59962569 567.41377743 -257.7882954 564.80780307 -283 548 C-282.37094586 543.25740725 -281.04874628 538.98145875 -279.375 534.5234375 C-278.83231104 533.04830522 -278.28975471 531.57312414 -277.74731445 530.09790039 C-277.46232086 529.32850128 -277.17732727 528.55910217 -276.88369751 527.76638794 C-251.5722794 459.27075531 -235.41147595 388.00164419 -228.34506226 315.32069397 C-225.20939545 283.10330907 -219.86969081 251.91218362 -210 221 C-209.65211426 219.9054248 -209.30422852 218.81084961 -208.94580078 217.68310547 C-190.91333955 161.70407365 -160.81094074 110.86819877 -119.375 69.125 C-118.51648437 68.25713867 -117.65796875 67.38927734 -116.7734375 66.49511719 C-110.82450387 60.57565617 -104.57658087 55.20807268 -98 50 C-96.9493335 49.15236084 -96.9493335 49.15236084 -95.87744141 48.28759766 C-84.53381747 39.16855097 -72.57422139 31.31560585 -60 24 C-58.84491943 23.32541748 -58.84491943 23.32541748 -57.66650391 22.63720703 C-42.18515854 13.72758988 -18.17228816 0 0 0 Z " fill="#F89A2D" transform="translate(1658,0)"/>
<path d="M0 0 C3.53227941 0.00008059 7.06442726 -0.00676812 10.59667969 -0.02050781 C87.12093373 -0.3132991 167.04241355 4.5467263 231.84130859 50.18530273 C232.5730127 50.69818848 233.3047168 51.21107422 234.05859375 51.73950195 C243.59959295 58.47672678 252.67540336 65.44290428 261.07958984 73.56420898 C263.01827684 75.40417925 264.92752061 77.11041538 266.98974609 78.79467773 C269.30479815 80.7355159 271.22275198 82.57250015 273.15380859 84.87280273 C275.7108868 87.8821153 278.33787568 90.79522135 281.02880859 93.68530273 C291.07152249 104.85718037 299.53121205 117.08659663 306.84130859 130.18530273 C307.24591309 130.90024902 307.65051758 131.61519531 308.06738281 132.35180664 C333.3207837 177.27586889 341.66811668 230.12229981 328.66992188 280.27416992 C325.87807015 290.08266728 322.52352421 300.10234424 317.84130859 309.18530273 C311.91532457 307.54669529 306.12484246 305.60608488 300.36083984 303.47045898 C299.33626175 303.09090057 299.33626175 303.09090057 298.29098511 302.70367432 C297.23018234 302.31052032 297.23018234 302.31052032 296.14794922 301.90942383 C227.17304417 276.34744127 155.68841615 261.07929072 82.59130859 253.62280273 C8.22423301 246.01764733 -64.11032262 223.01989736 -124.15869141 177.18530273 C-124.79339355 176.70609375 -125.4280957 176.22688477 -126.08203125 175.7331543 C-133.56485196 170.06973972 -140.63589344 164.09346269 -147.48291016 157.67749023 C-149.73134526 155.58332732 -152.01259729 153.55789612 -154.34619141 151.56030273 C-161.52266964 145.32182892 -168.0532311 138.4653373 -174.15869141 131.18530273 C-174.82312256 130.40751465 -174.82312256 130.40751465 -175.50097656 129.61401367 C-188.94468542 113.83054427 -200.64477332 96.61775441 -210.15869141 78.18530273 C-210.58746582 77.35901367 -211.01624023 76.53272461 -211.45800781 75.68139648 C-217.24520859 64.39851055 -222.20925976 52.96685057 -226.40869141 40.99780273 C-226.80378906 39.88099121 -227.19888672 38.76417969 -227.60595703 37.61352539 C-227.95851562 36.57115723 -228.31107422 35.52878906 -228.67431641 34.45483398 C-228.9865918 33.5329126 -229.29886719 32.61099121 -229.62060547 31.66113281 C-230.19492445 29.018588 -229.89462632 27.73011988 -229.15869141 25.18530273 C-172.38182219 13.30252675 -115.38547604 4.85488894 -57.45611572 1.32632446 C-55.95356751 1.23409424 -54.45122971 1.13835164 -52.94915771 1.03866577 C-35.32043937 -0.1141429 -17.65784551 -0.00208136 0 0 Z " fill="#F89A2D" transform="translate(230.15869140625,1207.814697265625)"/>
<path d="M0 0 C0.66 0.33 1.32 0.66 2 1 C2.88208008 3.72680664 2.88208008 3.72680664 3.76953125 7.41015625 C3.93087051 8.07650085 4.09220978 8.74284546 4.25843811 9.42938232 C4.78768201 11.63793369 5.30156607 13.84964486 5.8125 16.0625 C5.98952454 16.8204184 6.16654907 17.57833679 6.34893799 18.35922241 C8.92556636 29.44897152 11.12616083 40.56265023 12.875 51.8125 C13.06553955 53.02881104 13.2560791 54.24512207 13.45239258 55.49829102 C14.01914881 59.3266512 14.5318071 63.15858206 15 67 C15.0921579 67.75123138 15.1843158 68.50246277 15.27926636 69.27645874 C16.9368638 83.261028 17.34252123 97.15229526 17.31567383 111.22729492 C17.31251896 114.66682857 17.33606887 118.10549381 17.36132812 121.54492188 C17.41862045 141.57474776 15.69646315 161.46769264 11.75 181.125 C11.54093018 182.18227295 11.33186035 183.2395459 11.11645508 184.32885742 C2.06565708 228.36516322 -16.96678283 269.401053 -47 303 C-47.49000488 303.55171875 -47.98000977 304.1034375 -48.48486328 304.671875 C-92.6569184 354.19682783 -156.5875109 378.45096867 -221.25 386.3125 C-221.91766388 386.39399292 -222.58532776 386.47548584 -223.27322388 386.55944824 C-239.71237037 388.52945067 -256.08079008 389.21159921 -272.625 389.1875 C-273.46926544 389.18656342 -274.31353088 389.18562683 -275.18338013 389.18466187 C-317.96498086 389.08295718 -360.13252437 383.54317033 -402 375 C-402.67232666 374.86291626 -403.34465332 374.72583252 -404.03735352 374.58459473 C-479.30526927 359.13987606 -552.16286747 332.84243599 -622.57666016 302.46728516 C-627.70094154 300.27095574 -632.84791498 298.13014885 -638 296 C-638 295.34 -638 294.68 -638 294 C-637.15824219 294.21914062 -636.31648438 294.43828125 -635.44921875 294.6640625 C-544.40614674 317.92117124 -454.87549072 311.69694738 -246.71923828 227.56689453 C-244.14987813 226.08636361 -241.57414631 224.61767126 -238.99609375 223.15234375 C-206.81563327 204.79302051 -176.25490133 183.6998612 -147 161 C-146.30583984 160.46181641 -145.61167969 159.92363281 -144.89648438 159.36914062 C-129.2673761 147.22712988 -114.03795916 134.62370116 -99.45703125 121.23828125 C-97.27094931 119.24682664 -95.05417394 117.30327487 -92.8125 115.375 C-89.37256643 112.39045479 -86.1862644 109.20472766 -82.9921875 105.9609375 C-81.09672926 104.09521194 -79.14553265 102.35340745 -77.125 100.625 C-70.25161136 94.69687109 -63.92889589 88.21333561 -58.03515625 81.31640625 C-55.85220836 78.83178418 -53.60170033 76.42199297 -51.33740234 74.01171875 C-45.27096732 67.54915781 -39.4948018 60.96126016 -34 54 C-32.91940877 52.66134697 -31.83866801 51.32281465 -30.7578125 49.984375 C-18.29272902 34.41295471 -7.96860752 18.30436023 0 0 Z " fill="#F58D2D" transform="translate(2346,927)"/>
<path d="M0 0 C3.67956291 1.56232021 6.16515793 3.83584082 9.0625 6.5625 C14.00724944 11.14898212 19.12861733 15.44698482 24.38037109 19.68066406 C26.18984808 21.15464863 27.98033605 22.64990254 29.76953125 24.1484375 C39.82524066 32.55080818 50.16525803 40.48848793 60.69824219 48.28173828 C62.70493987 49.77973768 64.68982988 51.29950237 66.6640625 52.83984375 C81.15255215 64.08397836 96.66885456 73.95705601 112 84 C112.98564941 84.64598145 113.97129883 85.29196289 114.98681641 85.95751953 C134.90012948 98.93852708 155.79830191 110.27884759 177 121 C177.96035156 121.48823242 178.92070313 121.97646484 179.91015625 122.47949219 C225.45877713 145.48124248 275.23765307 161.94448844 326 168 C327.4543042 168.17354004 327.4543042 168.17354004 328.93798828 168.35058594 C386.16165376 174.82293877 444.95539625 165.88250113 496.12060547 138.98242188 C497.9686078 138.01640975 499.82800816 137.07652869 501.69140625 136.140625 C518.3370947 127.67091355 533.46780035 116.67012193 548 105 C548.8967041 104.28118652 548.8967041 104.28118652 549.81152344 103.54785156 C558.85118483 96.20977349 567.12564525 88.07582264 575.375 79.875 C575.88555939 79.36979828 576.39611877 78.86459656 576.92214966 78.34408569 C583.75155616 71.56913512 590.03464601 64.56373364 596 57 C596.93584551 55.83850874 597.87303549 54.67809727 598.8125 53.51953125 C600.29306748 51.687329 601.77219352 49.85396117 603.25 48.01953125 C603.8275 47.35308594 604.405 46.68664063 605 46 C605.33 46 605.66 46 606 46 C613.37056374 101.66652204 594.51964258 165.62871491 561.375 210.4375 C559.92533583 212.29845243 558.46742605 214.15302113 557 216 C556.04673828 217.25876953 556.04673828 217.25876953 555.07421875 218.54296875 C522.96704441 259.75237116 475.02448974 284.7971332 423.59767151 291.34461975 C414.89513768 292.34543138 406.18713587 292.35035028 397.4375 292.3125 C396.55981964 292.31067719 395.68213928 292.30885437 394.77786255 292.30697632 C380.98763582 292.25887215 367.57255499 291.61157666 354 289 C353.07590332 288.82839355 352.15180664 288.65678711 351.19970703 288.47998047 C266.57370845 272.44331791 189.290485 219.40301576 129.73828125 158.703125 C127.97586368 156.97635183 126.13971414 155.39816645 124.25 153.8125 C120.0134429 150.17404508 116.32339139 146.1070805 112.57446289 141.98095703 C109.36503171 138.45498893 106.08343409 135.03691444 102.6875 131.6875 C99.24286464 128.28119921 95.98405224 124.79737797 92.8359375 121.1171875 C90.6479383 118.59400545 88.38706887 116.14445481 86.125 113.6875 C82.05459944 109.22477168 78.19823091 104.63742 74.40625 99.9375 C71.70220111 96.6364533 68.91855523 93.41264883 66.125 90.1875 C60.71251994 83.91308932 55.55716459 77.47074133 50.48779297 70.91748047 C48.89688155 68.86710005 47.29499999 66.82563094 45.69140625 64.78515625 C33.45275723 49.18380583 21.73020236 33.22626144 10.37841797 16.96923828 C9.01044451 15.01492126 7.63312035 13.06748916 6.25390625 11.12109375 C5.41900608 9.93508216 4.58435605 8.74889443 3.75 7.5625 C2.65945313 6.01755859 2.65945313 6.01755859 1.546875 4.44140625 C0 2 0 2 0 0 Z " fill="#FCB32D" transform="translate(1723,1287)"/>
<path d="M0 0 C1.85336153 2.78004229 2.61069735 4.63439621 3.5234375 7.78515625 C3.81589355 8.77338379 4.10834961 9.76161133 4.40966797 10.77978516 C4.72822754 11.86308105 5.04678711 12.94637695 5.375 14.0625 C15.46969405 47.53288294 28.47165129 79.50134192 43.06381226 111.24082947 C55.57002988 138.44439153 67.78987084 165.24298176 73.625 194.75 C73.8314917 195.78471436 74.0379834 196.81942871 74.25073242 197.88549805 C77.29370727 213.89666476 78.47140274 229.84517464 78.5 246.125 C78.50267883 247.04165436 78.50535767 247.95830872 78.50811768 248.90274048 C78.49031435 277.43563357 73.85454375 305.59265584 66 333 C65.67 333 65.34 333 65 333 C65.52899148 326.44050571 66.42877811 319.98924421 67.5 313.5 C67.63059814 312.69836426 67.76119629 311.89672852 67.89575195 311.07080078 C68.87623091 305.24753818 68.87623091 305.24753818 70 303 C70.20603645 300.69067477 70.36623362 298.37713617 70.5 296.0625 C70.88986233 289.33041302 70.88986233 289.33041302 72 286 C72.10694075 284.39000123 72.15864369 282.77603973 72.17700195 281.16259766 C72.18965088 280.17429459 72.2022998 279.18599152 72.21533203 278.16773987 C72.22290527 277.09402634 72.23047852 276.02031281 72.23828125 274.9140625 C72.24802979 273.79760849 72.25777832 272.68115448 72.26782227 271.53086853 C72.42831448 248.35990583 72.56291742 225.79570088 68 203 C67.64507918 201.03789668 67.29090456 199.07565823 66.9375 197.11328125 C62.34698867 172.96311119 53.76216154 149.27501371 42.65234375 127.37109375 C39.01391293 120.17178486 35.78682045 112.82220807 32.6875 105.375 C32.41031128 104.71147522 32.13312256 104.04795044 31.84753418 103.36431885 C0 26.92796686 0 26.92796686 0 0 Z " fill="#FED850" transform="translate(912,241)"/>
<path d="M0 0 C3.84321219 2.10493954 6.61456103 4.4534673 9.625 7.625 C13.99274348 12.09689236 18.60066509 16.02095073 23.48046875 19.91796875 C25.62841858 21.69294125 27.57012721 23.49643278 29.5 25.5 C33.97308812 30.09879552 38.9769838 34.02432415 44 38 C44.65436035 38.52013672 45.3087207 39.04027344 45.98291016 39.57617188 C56.06138252 47.56872617 66.33020767 55.201648 76.89550781 62.53662109 C140.64818369 106.86765813 140.64818369 106.86765813 162 134 C162.88307744 135.09328646 163.76723606 136.1857003 164.65234375 137.27734375 C188.92375257 167.39909215 211.11546202 206.55160568 218 245 C217.70719313 246.34281534 217.37979075 247.67914881 217 249 C216.75878418 248.32122803 216.51756836 247.64245605 216.26904297 246.94311523 C213.54264915 239.28445071 210.78548048 231.63737347 208 224 C207.71817871 223.22446777 207.43635742 222.44893555 207.14599609 221.64990234 C203.07639024 210.57107595 197.66186844 200.33133896 192 190 C191.60345215 189.27039063 191.2069043 188.54078125 190.79833984 187.7890625 C180.09980677 168.14585423 167.3864868 149.2897421 152 133 C150.89072135 131.71272082 149.78643909 130.42111716 148.6875 129.125 C140.5629394 119.8371074 131.70422574 111.60884636 122 104 C120.91964556 103.13005665 119.8402577 102.2589119 118.76171875 101.38671875 C112.14060228 96.06551745 105.35623604 91.10450418 98.32470703 86.34082031 C85.77745398 77.81145712 73.62322729 68.75029019 62 59 C60.14668577 57.49894691 58.29250268 55.998966 56.4375 54.5 C52.03534205 50.90051473 47.77864576 47.17242222 43.58203125 43.3359375 C41.46182463 41.41780806 39.32103188 39.53253398 37.1640625 37.65625 C26.92714955 28.71582947 17.15354184 19.25032648 7.5 9.6875 C6.37766968 8.58462646 6.37766968 8.58462646 5.23266602 7.45947266 C4.54744873 6.77546387 3.86223145 6.09145508 3.15625 5.38671875 C2.54587891 4.78045654 1.93550781 4.17419434 1.30664062 3.54956055 C0 2 0 2 0 0 Z " fill="#FED850" transform="translate(385,673)"/>
<path d="M0 0 C0 0.33 0 0.66 0 1 C-8.65270593 0.42447598 -17.17908824 -0.86520542 -25.7421875 -2.18359375 C-26.59506348 -2.31145264 -27.44793945 -2.43931152 -28.32666016 -2.57104492 C-30.10827446 -2.85691673 -31.88466476 -3.17750265 -33.65380859 -3.5324707 C-44.20862068 -5.5019151 -54.803552 -5.33668202 -65.50683594 -5.31567383 C-68.83302414 -5.31253955 -72.15829782 -5.33594387 -75.484375 -5.36132812 C-89.88441328 -5.40420049 -103.78570765 -4.2783657 -118 -2 C-119.91208252 -1.70186401 -119.91208252 -1.70186401 -121.86279297 -1.39770508 C-149.24798328 3.12140468 -174.40482215 12.01680912 -199.39868164 23.91503906 C-237.36962155 41.98672633 -277.22972945 55.73783306 -318.06640625 65.7890625 C-319.10869385 66.0463916 -320.15098145 66.3037207 -321.22485352 66.56884766 C-323.91625527 66.98698925 -325.46238769 66.89670161 -328 66 C-327.40614502 65.82573486 -326.81229004 65.65146973 -326.20043945 65.47192383 C-288.67415391 54.37728831 -252.80572018 40.3877365 -217.26074219 24.06347656 C-146.77812528 -8.29053891 -76.17134719 -22.56162186 0 0 Z " fill="#FED950" transform="translate(589,1885)"/>
<path d="M0 0 C0 3 0 3 -2.30859375 5.53125 C-3.34602849 6.52663342 -4.38941357 7.51583852 -5.4375 8.5 C-10.21185285 13.11835568 -14.47380408 17.89826641 -18.60546875 23.109375 C-21.35139555 26.42419692 -24.28089491 29.51164866 -27.25 32.625 C-33.91867098 39.67012821 -39.73135411 47.24992579 -45.51708984 55.02490234 C-46.85099433 56.80153838 -48.20663945 58.55618557 -49.58203125 60.30078125 C-55.05590412 67.26029329 -60.07883003 74.43726844 -65.03637695 81.76977539 C-69.09049583 87.74053834 -73.32246302 93.54261641 -77.6887207 99.2878418 C-80.89662438 103.51178512 -84.00752538 107.78943534 -87.0625 112.125 C-101.04089736 131.84392625 -116.90621627 150.05363651 -136 165 C-136.98484375 165.79019531 -137.9696875 166.58039063 -138.984375 167.39453125 C-167.92338615 190.3989712 -207.26151656 212.75273839 -244 219 C-245.34240515 218.70531829 -246.67849192 218.37749873 -248 218 C-246.75464478 217.55515259 -246.75464478 217.55515259 -245.48413086 217.10131836 C-223.85533791 209.47705477 -223.85533791 209.47705477 -203 200 C-202.22994629 199.61408691 -201.45989258 199.22817383 -200.66650391 198.83056641 C-176.66395667 186.799456 -153.59018133 172.49765199 -134 154 C-132.77468297 152.95380771 -131.54552364 151.91209828 -130.3125 150.875 C-119.97689973 141.84185343 -110.3281605 131.9097444 -102 121 C-101.55092285 120.41669922 -101.1018457 119.83339844 -100.63916016 119.23242188 C-95.05132584 111.96096581 -89.65422747 104.5851682 -84.5 97 C-68.9908323 74.19584124 -51.3189517 52.81185065 -32.52636719 32.64404297 C-30.85559434 30.84446134 -29.19748409 29.03362349 -27.5390625 27.22265625 C-18.76275315 17.69269616 -9.56888071 8.73176974 0 0 Z " fill="#FED850" transform="translate(2209,417)"/>
<path d="M0 0 C0.33 0 0.66 0 1 0 C0.40026854 6.36736163 -0.67675391 12.40311864 -2.125 18.625 C-9.51289479 51.78893056 -14.12183275 85.02598064 -16.90736389 118.8637085 C-22.98915338 192.61125943 -48.34033587 253.49587156 -98.5625 308.375 C-99.45630371 309.36669189 -99.45630371 309.36669189 -100.36816406 310.37841797 C-101.20879395 311.28551514 -101.20879395 311.28551514 -102.06640625 312.2109375 C-102.56084229 312.75024902 -103.05527832 313.28956055 -103.56469727 313.84521484 C-105 315 -105 315 -108 315 C-106.38405168 312.95880212 -104.7143618 310.95927063 -103 309 C-102.34 309 -101.68 309 -101 309 C-100.77054688 308.45730469 -100.54109375 307.91460937 -100.3046875 307.35546875 C-98.62570075 304.32424418 -96.40883115 301.89172631 -94.125 299.3125 C-87.48388447 291.6165218 -81.67068785 283.42796108 -76 275 C-75.51418457 274.28134766 -75.02836914 273.56269531 -74.52783203 272.82226562 C-61.18846062 252.90903093 -50.22422245 231.50572333 -42 209 C-41.38049483 207.36577678 -40.76069981 205.73166341 -40.140625 204.09765625 C-35.62741076 191.96414057 -32.53019402 179.6850642 -30 167 C-29.62572876 165.18556396 -29.62572876 165.18556396 -29.24389648 163.33447266 C-27.4785758 154.56610396 -26.38429869 145.89900591 -25.72073364 136.97744751 C-23.94194534 113.34271997 -20.83292852 89.88640996 -16.48242188 66.58496094 C-16.17119427 64.91731019 -15.86483971 63.24873911 -15.56445312 61.57910156 C-13.52955715 50.28402231 -10.86082408 39.17257346 -8 28.0625 C-7.83246216 27.40991211 -7.66492432 26.75732422 -7.49230957 26.08496094 C-5.23099368 17.31178527 -2.74031996 8.63546971 0 0 Z " fill="#FED850" transform="translate(1584,150)"/>
<path d="M0 0 C4.43791123 0.41867087 8.51311637 1.08781454 12.7890625 2.3515625 C20.12352208 4.39153375 27.57985809 5.70587616 35.0625 7.0625 C37.1622889 7.44756227 39.26182956 7.83395449 41.36132812 8.22059631 C42.71943071 8.47053728 44.07766525 8.71976241 45.43603516 8.96824646 C49.06038119 9.63311423 52.67565507 10.32930567 56.28515625 11.0703125 C75.58940068 14.96553689 95.23130216 16.67652678 114.8125 18.5 C129.50222808 19.86905272 144.17887915 21.23810369 158.8125 23.125 C159.96403564 23.27130859 161.11557129 23.41761719 162.30200195 23.56835938 C175.88520437 25.3882153 188.83596201 28.26377644 201.8125 32.6875 C202.46330536 32.90753693 203.11411072 33.12757385 203.78463745 33.35427856 C214.48014159 36.97890147 224.88290291 40.9638741 235 46 C235.82757813 46.40831055 236.65515625 46.81662109 237.5078125 47.23730469 C267.30208185 62.05753675 298.95496551 82.69370689 320 109 C316.26925273 107.43688598 313.88396031 105.11681606 311 102.3125 C297.17723927 89.30993798 281.24466901 78.71203796 265 69 C264.34676758 68.60651367 263.69353516 68.21302734 263.02050781 67.80761719 C245.15759846 57.13422851 226.21089303 48.0739767 206.37646484 41.76025391 C203.97806778 40.99298367 201.59259358 40.19292122 199.20703125 39.38671875 C188.2998712 35.7532265 177.3211237 33.00226129 166 31 C165.09830078 30.83862549 164.19660156 30.67725098 163.26757812 30.51098633 C153.92258754 28.95273766 144.5373228 28.20654311 135.10379028 27.42687988 C95.54034665 24.10824342 57.14496532 17.22534619 18.875 6.625 C18.08934662 6.40808502 17.30369324 6.19117004 16.49423218 5.96768188 C14.28294336 5.35337823 12.07453163 4.72987721 9.8671875 4.1015625 C8.61019043 3.74400879 7.35319336 3.38645508 6.05810547 3.01806641 C3 2 3 2 0 0 Z " fill="#FED850" transform="translate(145,1305)"/>
<path d="M0 0 C1.02034337 3.16907175 0.9448423 5.18076783 0.109375 8.38671875 C-0.10436768 9.23532471 -0.31811035 10.08393066 -0.53833008 10.95825195 C-0.77318115 11.85890381 -1.00803223 12.75955566 -1.25 13.6875 C-3.6010585 23.07129 -5.46089006 32.45251315 -7 42 C-9.77739494 37.83390759 -8.89403899 34.69669548 -8 30 C-6.7619468 24.77945841 -5.36209367 19.60967343 -3.9375 14.4375 C-3.55602905 13.03336913 -3.17516476 11.6290733 -2.79492188 10.22460938 C-1.87026673 6.81447626 -0.93742538 3.4066478 0 0 Z " fill="#B52B34" transform="translate(722,1215)"/>
<path d="M0 0 C0.66 0.33 1.32 0.66 2 1 C1.6376123 1.63389648 1.27522461 2.26779297 0.90185547 2.92089844 C-8.48426527 19.22925455 -8.48426527 19.22925455 -17 36 C-18.18557772 32.44326684 -17.49950671 31.40667665 -15.90325928 28.16308594 C-15.57940247 27.53176758 -15.25554565 26.90044922 -14.921875 26.25 C-14.5946344 25.59547852 -14.2673938 24.94095703 -13.93023682 24.26660156 C-13.23543638 22.88236403 -12.5357347 21.50057742 -11.83154297 20.12109375 C-10.75699867 18.01372562 -9.69965482 15.8983966 -8.64453125 13.78125 C-7.9671536 12.43699171 -7.28879973 11.0932248 -6.609375 9.75 C-6.29361511 9.11868164 -5.97785522 8.48736328 -5.65252686 7.83691406 C-4.08949433 4.79284621 -2.63154792 2.22622904 0 0 Z " fill="#BF303A" transform="translate(780,1075)"/>
<path d="M0 0 C0.66 0.33 1.32 0.66 2 1 C1.04975274 5.08525867 0.08841068 9.16782732 -0.875 13.25 C-1.14441406 14.40886719 -1.41382813 15.56773437 -1.69140625 16.76171875 C-1.95566406 17.87675781 -2.21992187 18.99179687 -2.4921875 20.140625 C-2.85352783 21.68024902 -2.85352783 21.68024902 -3.22216797 23.25097656 C-3.91965797 25.71605422 -4.76210124 27.76711091 -6 30 C-5.47174254 23.4496075 -4.59720665 16.98674041 -3.5625 10.5 C-3.37917114 9.29754639 -3.37917114 9.29754639 -3.19213867 8.07080078 C-2.23433015 2.23433015 -2.23433015 2.23433015 0 0 Z " fill="#FDB848" transform="translate(983,544)"/>
<path d="M0 0 C0 0.33 0 0.66 0 1 C-10.41607662 0.30718756 -20.69544198 -1.3903387 -31 -3 C-31 -3.33 -31 -3.66 -31 -4 C-20.53631844 -6.41469574 -10.09128814 -2.66211896 0 0 Z " fill="#FDBA49" transform="translate(589,1885)"/>
<path d="M0 0 C0 0.66 0 1.32 0 2 C-3.74487708 3.20409317 -7.49657476 4.38535051 -11.25 5.5625 C-12.31347656 5.90474609 -13.37695312 6.24699219 -14.47265625 6.59960938 C-16.00986328 7.07817383 -16.00986328 7.07817383 -17.578125 7.56640625 C-18.52075195 7.86490479 -19.46337891 8.16340332 -20.43457031 8.47094727 C-23.06967962 9.0143696 -24.49417666 8.88941261 -27 8 C-23.06822095 6.46407227 -19.1287725 4.94888256 -15.1875 3.4375 C-14.06794922 2.99986328 -12.94839844 2.56222656 -11.79492188 2.11132812 C-10.18520508 1.49741211 -10.18520508 1.49741211 -8.54296875 0.87109375 C-7.55321045 0.48880615 -6.56345215 0.10651855 -5.54370117 -0.28735352 C-3 -1 -3 -1 0 0 Z " fill="#FEBA4B" transform="translate(1988,627)"/>
<path d="M0 0 C5.61578326 0.52979087 10.74765732 1.68788055 16.16796875 3.234375 C20.40253844 4.37916901 24.68805699 5.20495628 29 6 C29 6.99 29 7.98 29 9 C19.22529916 6.6834524 9.61857685 3.88329377 0 1 C0 0.67 0 0.34 0 0 Z " fill="#FDD146" transform="translate(145,1305)"/>
<path d="M0 0 C0.66 0.33 1.32 0.66 2 1 C1.25556641 1.72703125 1.25556641 1.72703125 0.49609375 2.46875 C-3.67351231 6.5829723 -7.63738416 10.79414452 -11.45703125 15.234375 C-13.21796344 17.24941639 -15.06973331 19.14694398 -17 21 C-17.66 20.67 -18.32 20.34 -19 20 C-17.38405168 17.95880212 -15.7143618 15.95927063 -14 14 C-13.34 14 -12.68 14 -12 14 C-11.72929688 13.41347656 -11.45859375 12.82695312 -11.1796875 12.22265625 C-8.58843273 7.3404577 -4.62537459 3.02428338 0 0 Z " fill="#FCB045" transform="translate(1495,445)"/>
<path d="M0 0 C0.99 0 1.98 0 3 0 C4.0373997 3.24494693 5.05197239 6.49659404 6.0625 9.75 C6.35705078 10.67039062 6.65160156 11.59078125 6.95507812 12.5390625 C7.22900391 13.42851563 7.50292969 14.31796875 7.78515625 15.234375 C8.04176025 16.05131836 8.29836426 16.86826172 8.56274414 17.70996094 C9.03411697 20.17868071 8.79786936 21.6419054 8 24 C6.66147204 20.37689672 5.33006282 16.75121856 4 13.125 C3.6184375 12.09246094 3.236875 11.05992187 2.84375 9.99609375 C2.4828125 9.00996094 2.121875 8.02382813 1.75 7.0078125 C1.41484375 6.09660645 1.0796875 5.18540039 0.734375 4.24658203 C0 2 0 2 0 0 Z " fill="#FDB949" transform="translate(594,898)"/>
<path d="M0 0 C1.32 0.33 2.64 0.66 4 1 C1.71439353 2.5306999 -0.57762667 4.04965044 -2.875 5.5625 C-3.52597656 6.00013672 -4.17695313 6.43777344 -4.84765625 6.88867188 C-6.52625497 7.98754836 -8.26023387 9.0007818 -10 10 C-10.66 9.67 -11.32 9.34 -12 9 C-12 8.01 -12 7.02 -12 6 C-10.56570999 5.32645501 -9.12742943 4.66140299 -7.6875 4 C-6.48673828 3.443125 -6.48673828 3.443125 -5.26171875 2.875 C-3 2 -3 2 0 2 C0 1.34 0 0.68 0 0 Z " fill="#E7C916" transform="translate(2277,1706)"/>
<path d="M0 0 C-3.38152192 1.89796206 -6.73436548 2.80223042 -10.5 3.6875 C-12.18609375 4.09548828 -12.18609375 4.09548828 -13.90625 4.51171875 C-16.7684642 4.9634571 -18.32241337 4.97784414 -21 4 C-18.44165429 3.13118459 -15.87957539 2.2797867 -13.3125 1.4375 C-12.59126953 1.19064453 -11.87003906 0.94378906 -11.12695312 0.68945312 C-7.05647168 -0.63020068 -4.21972067 -1.38992772 0 0 Z " fill="#FCCC44" transform="translate(282,1947)"/>
<path d="M0 0 C2.0853663 3.12804946 3.05493825 5.80150192 4.1875 9.375 C4.55230469 10.49648437 4.91710937 11.61796875 5.29296875 12.7734375 C6.00087593 16.00399734 5.92193581 17.86424381 5 21 C3.09260973 17.61645552 2.23265257 14.27713656 1.375 10.5 C1.11460937 9.3759375 0.85421875 8.251875 0.5859375 7.09375 C0 4 0 4 0 0 Z " fill="#FCCB44" transform="translate(912,241)"/>
<path d="M0 0 C4.88049925 3.9419417 9.0580583 8.11950075 13 13 C9.28954753 11.42219077 6.70093616 9.09296752 3.75 6.375 C2.85796875 5.55773438 1.9659375 4.74046875 1.046875 3.8984375 C0.37140625 3.27195312 -0.3040625 2.64546875 -1 2 C-0.67 1.34 -0.34 0.68 0 0 Z " fill="#FDB848" transform="translate(452,1401)"/>
<path d="M0 0 C4.82675589 2.41337795 7.69984002 5.86062408 11 10 C8 10 8 10 5.95703125 8.3203125 C5.24933594 7.59585938 4.54164063 6.87140625 3.8125 6.125 C2.73935547 5.04605469 2.73935547 5.04605469 1.64453125 3.9453125 C0 2 0 2 0 0 Z " fill="#FCCA43" transform="translate(385,673)"/>
<path d="M0 0 C0.66 0.33 1.32 0.66 2 1 C-0.97 3.97 -3.94 6.94 -7 10 C-7.33 9.34 -7.66 8.68 -8 8 C-5.58443874 4.80800833 -3.31996462 2.25283313 0 0 Z " fill="#FEBD4D" transform="translate(1495,445)"/>
<path d="M0 0 C-2.96687001 1.64826111 -5.65626525 2.44271087 -9 3 C-9 2.34 -9 1.68 -9 1 C-5.64919071 -1.10976881 -3.77897651 -1.0497157 0 0 Z " fill="#E07B2B" transform="translate(1077,1322)"/>
</svg>
